<?xml version="1.0" encoding="utf-8"?>
<!-- Generator: Adobe Illustrator 15.0.0, SVG Export Plug-In . SVG Version: 6.00 Build 0)  -->
<!DOCTYPE svg PUBLIC "-//W3C//DTD SVG 1.1//EN" "http://www.w3.org/Graphics/SVG/1.1/DTD/svg11.dtd">
<svg version="1.1" id="Layer_1" xmlns="http://www.w3.org/2000/svg" xmlns:xlink="http://www.w3.org/1999/xlink" x="0px" y="0px"
	 width="572.6px" height="133.23px" viewBox="0 0 572.6 133.23" enable-background="new 0 0 572.6 133.23" xml:space="preserve">
<g>
	
		<rect x="25.9" y="107.115" fill-rule="evenodd" clip-rule="evenodd" fill="#FFFFFF" fill-opacity="0.0471" width="24.5" height="24.5"/>
	
		<rect x="522.7" y="112.188" fill-rule="evenodd" clip-rule="evenodd" fill="#FFFFFF" fill-opacity="0.0471" width="24.5" height="19.429"/>
	
		<rect x="467.5" y="83.132" fill-rule="evenodd" clip-rule="evenodd" fill="#FFFFFF" fill-opacity="0.0471" width="24.5" height="48.5"/>
	
		<rect x="439.899" y="98.119" fill-rule="evenodd" clip-rule="evenodd" fill="#FFFFFF" fill-opacity="0.0471" width="24.5" height="33.5"/>
	
		<rect x="412.3" y="107.115" fill-rule="evenodd" clip-rule="evenodd" fill="#FFFFFF" fill-opacity="0.0471" width="24.5" height="24.5"/>
	
		<rect x="495.101" y="93.195" fill-rule="evenodd" clip-rule="evenodd" fill="#FFFFFF" fill-opacity="0.0471" width="24.5" height="38.467"/>
	
		<rect x="357.101" y="44.106" fill-rule="evenodd" clip-rule="evenodd" fill="#FFFFFF" fill-opacity="0.0471" width="24.5" height="87.499"/>
	
		<rect x="329.5" y="19.092" fill-rule="evenodd" clip-rule="evenodd" fill="#FFFFFF" fill-opacity="0.0471" width="24.5" height="112.5"/>
	
		<rect x="301.899" y="27.115" fill-rule="evenodd" clip-rule="evenodd" fill="#FFFFFF" fill-opacity="0.0471" width="24.5" height="104.5"/>
	
		<rect x="274.3" y="36.096" fill-rule="evenodd" clip-rule="evenodd" fill="#FFFFFF" fill-opacity="0.0471" width="24.5" height="95.5"/>
	
		<rect x="384.7" y="75.12" fill-rule="evenodd" clip-rule="evenodd" fill="#FFFFFF" fill-opacity="0.0471" width="24.5" height="56.5"/>
	
		<rect x="219.1" y="73.104" fill-rule="evenodd" clip-rule="evenodd" fill="#FFFFFF" fill-opacity="0.0471" width="24.5" height="58.5"/>
	
		<rect x="191.5" y="83.132" fill-rule="evenodd" clip-rule="evenodd" fill="#FFFFFF" fill-opacity="0.0471" width="24.5" height="48.5"/>
	
		<rect x="163.9" y="98.119" fill-rule="evenodd" clip-rule="evenodd" fill="#FFFFFF" fill-opacity="0.0471" width="24.5" height="33.5"/>
	
		<rect x="136.3" y="63.127" fill-rule="evenodd" clip-rule="evenodd" fill="#FFFFFF" fill-opacity="0.0471" width="24.5" height="68.499"/>
	
		<rect x="53.5" y="89.126" fill-rule="evenodd" clip-rule="evenodd" fill="#FFFFFF" fill-opacity="0.0471" width="24.5" height="42.499"/>
	
		<rect x="246.7" y="53.102" fill-rule="evenodd" clip-rule="evenodd" fill="#FFFFFF" fill-opacity="0.0471" width="24.5" height="78.5"/>
	
		<rect x="108.7" y="93.106" fill-rule="evenodd" clip-rule="evenodd" fill="#FFFFFF" fill-opacity="0.0471" width="24.5" height="38.499"/>
	
		<rect x="81.1" y="75.12" fill-rule="evenodd" clip-rule="evenodd" fill="#FFFFFF" fill-opacity="0.0471" width="24.5" height="56.5"/>
	
		<path fill-rule="evenodd" clip-rule="evenodd" fill="none" stroke="#FFFFFF" stroke-linecap="round" stroke-linejoin="round" stroke-miterlimit="3" stroke-opacity="0.0471" d="
		M0.8,128.615c10.6,1.767,23.4,0,38.4-5.301c11.167-3.933,24.7-10.35,40.6-19.25c8.8-4.899,20.85-11.816,36.15-20.75
		c11.8-6.466,20.083-9.699,24.85-9.699c7.467,0,17.867,3.333,31.2,10c7.033,3.533,11.866,5.833,14.5,6.899
		c5.167,2.066,9.6,3.101,13.3,3.101c8,0,14.967-1.351,20.9-4.051c4.567-2.066,9.367-5.449,14.4-10.149
		c2.9-2.7,7.483-7.134,13.75-13.3c6.067-5.467,12.383-9.967,18.95-13.5c0.467-0.233,5.283-5.801,14.45-16.7
		c9.267-11.033,14.783-17.134,16.55-18.3c5.334-3.601,10.783-7.784,16.35-12.551c4.434-2.966,10.65-4.449,18.65-4.449
		c8.467,0,16.45,7.233,23.95,21.699c4.066,7.867,8.75,18.967,14.05,33.301c4.634,10.267,7.366,15.983,8.2,17.149
		c2.333,3.233,4.741,5.351,7.225,6.351s6.825,1.833,13.025,2.5c6.2,0.666,10.708,0.833,13.524,0.5
		c2.817-0.334,5.659-1.534,8.525-3.601c0.9-0.666,3.467-2.967,7.7-6.899c7.166-6.667,14.6-10,22.3-10c5.5,0,10.75,1.767,15.75,5.3
		c3.733,2.666,7.767,6.684,12.1,12.05c2.4,3,5.75,7.283,10.051,12.85c3.6,4.267,6.8,6.867,9.6,7.801
		c8.333,2.8,18.634,5.783,30.9,8.949c8.267,2.167,21.966,10.184,41.1,24.051"/>
	
		<path fill-rule="evenodd" clip-rule="evenodd" fill="none" stroke="#FFFFFF" stroke-linecap="round" stroke-linejoin="round" stroke-miterlimit="3" stroke-opacity="0.0471" d="
		M0.8,128.615c7.833-7.334,17.917-10.7,30.25-10.101c11.367,0.533,20.433,0.733,27.2,0.601c21.966-0.4,40.816-4.233,56.55-11.5
		c7.467-3.4,18.017-7.834,31.65-13.301c11.267-4.899,20.05-10.133,26.35-15.699c8.5-7.4,15.217-12.217,20.15-14.45
		c3.733-1.7,8.35-2.55,13.85-2.55c9.433,0,19.783,3.833,31.05,11.5c7.467,5.1,11.367,7.732,11.7,7.899
		c4,2.4,7.417,3.601,10.25,3.601c4.333,0,10.917-2.284,19.75-6.851c1.633-0.866,10.5-5.916,26.6-15.149
		c11.934-6.834,21.834-11.867,29.7-15.101c11.101-4.6,20.75-6.899,28.95-6.899c11.767,0,17.8,0,18.1,0
		c3.733,0.199,6.467,0.883,8.2,2.05c1.267,0.899,3.267,3.233,6,7c4.033,5.6,7.934,10.583,11.7,14.95
		c7.634,8.833,13.65,15.166,18.05,19c4,3.466,7.467,5.517,10.4,6.149c1.767,0.4,4.483,0.267,8.149-0.399
		c4.2-0.768,8-1.018,11.4-0.75c20.97,1.533,34.437,3.017,40.4,4.449c5.958,1.433,13.267,3.892,21.925,7.375
		c8.659,3.483,16.125,6.8,22.399,9.95c6.279,3.151,16.371,10.56,30.275,22.226"/>
	
		<path fill-rule="evenodd" clip-rule="evenodd" fill="none" stroke="#FFFFFF" stroke-linecap="round" stroke-linejoin="round" stroke-miterlimit="3" stroke-opacity="0.0471" d="
		M0.8,128.615c26.997-2.923,50.613-11.598,70.85-26.025c20.234-14.421,36.284-27.412,48.15-38.975c2.367-2.301,9.65-13.7,21.85-34.2
		c11.033-18.533,17.75-27.8,20.15-27.8c2.066,0,3.7,5.517,4.9,16.55c2.033,18.767,3.583,30.916,4.65,36.45
		c6.7,35.333,21.684,53,44.95,53c4.967,0,8.517-0.301,10.65-0.9c0.998-0.305,7.156-1.438,18.475-3.4
		c11.323-1.954,21.573-3.771,30.75-5.449c9.177-1.68,17.644-2.496,25.4-2.45c7.752,0.037,15.826-0.562,24.225-1.8
		c16.233-2.4,30.384-5.334,42.45-8.801c7.434-2.133,15.767-5.066,25-8.8c8.533-3.434,14.866-5.666,19-6.7
		c7.066-1.8,15.25-2.699,24.55-2.699c6.4,0,12.25,0.35,17.55,1.05c8.233,1.1,15.717,3.083,22.45,5.95
		c3.634,1.535,10.158,3.585,19.575,6.149c9.416,2.56,18.8,6.785,28.149,12.675c9.351,5.893,25.108,19.285,47.275,40.176"/>
</g>
</svg>
