<?xml version="1.0" encoding="utf-8"?>
<!-- Generator: Adobe Illustrator 16.0.0, SVG Export Plug-In . SVG Version: 6.00 Build 0)  -->
<!DOCTYPE svg PUBLIC "-//W3C//DTD SVG 1.1//EN" "http://www.w3.org/Graphics/SVG/1.1/DTD/svg11.dtd">
<svg version="1.1" id="Layer_1" xmlns="http://www.w3.org/2000/svg" xmlns:xlink="http://www.w3.org/1999/xlink" x="0px" y="0px"
	 width="24px" height="24px" viewBox="0 0 24 24" enable-background="new 0 0 24 24" xml:space="preserve">
<g>
	<polygon fill="#FFFFFF" points="18.427,15.211 18.427,15.012 18.296,15.078 	"/>
	<path fill="#FFFFFF" d="M5.007,6.933l-2.07,5.565h0.909l0.405-1.221h2.398l0.412,1.221h0.909L5.887,6.933H5.007z M4.463,10.65
		l0.986-2.965l0.993,2.965H4.463L4.463,10.65z"/>
	<path fill="#FFFFFF" d="M11.599,8.42L6.963,3.784H0V15.58h9.148l4.636,4.637H24V8.42H11.599z M1.257,14.324V5.043l5.182-0.005
		l9.287,9.286h-5.377H1.257L1.257,14.324z M13.729,18.385l-2.8-2.803h4.753h0.247h0.247h0.047l0.155,0.154l-0.024,0.023
		l-0.123,0.123l-0.124,0.123L13.729,18.385z M18.427,15.211l-0.131-0.133l0.131-0.066V15.211z M22.741,18.838l-0.1,0.107
		l-0.091,0.016h-7.619l2.976-2.975l0.176-0.176l0.174-0.176l0.17-0.17v1.637h0.543v-2.402l0.085-0.053
		c0.648-0.404,1.265-0.873,1.831-1.398c0.029-0.027,0.061-0.055,0.089-0.082l-0.519-0.508H18.97v-1.125h-0.543v1.125h-1.833v0.543
		h3.403l-0.44,0.326c-0.099,0.072-0.198,0.145-0.304,0.217c-0.299,0.209-0.606,0.404-0.917,0.58
		c-0.17,0.096-0.343,0.188-0.519,0.277l-0.064-0.064l-0.085-0.086l-0.02,0.02L17.6,14.422l-0.132-0.131l-0.7-0.701l-0.175-0.174
		l-0.28-0.281l-0.174-0.174L12.859,9.68l9.882-0.006V18.838L22.741,18.838z"/>
	<path fill="#FFFFFF" d="M20.372,14.771c-0.186,0.137-0.365,0.262-0.547,0.379c0.256,0.193,0.521,0.418,0.778,0.648l0.445-0.438
		c-0.028-0.025-0.059-0.053-0.087-0.08C20.778,15.109,20.58,14.941,20.372,14.771z"/>
</g>
</svg>
