<?xml version="1.0" encoding="utf-8"?>
<!-- Generator: Adobe Illustrator 16.0.0, SVG Export Plug-In . SVG Version: 6.00 Build 0)  -->
<!DOCTYPE svg PUBLIC "-//W3C//DTD SVG 1.1//EN" "http://www.w3.org/Graphics/SVG/1.1/DTD/svg11.dtd">
<svg version="1.1" id="Layer_1" xmlns="http://www.w3.org/2000/svg" xmlns:xlink="http://www.w3.org/1999/xlink" x="0px" y="0px"
	 width="149.029px" height="40.73px" viewBox="0 0 149.029 40.73" enable-background="new 0 0 149.029 40.73" xml:space="preserve">
<symbol  id="Nuevo_símbolo" viewBox="-99.82 -27.282 199.642 54.563">
	<g>
		<path fill="#787B78" d="M-91.317,3.216c-1.552,3.349-3.046,6.854-4.484,10.513c-1.438,3.66-2.777,7.319-4.019,10.979h4.312
			c0.498-1.448,1.007-2.926,1.524-4.433c0.52-1.511,1.037-2.993,1.553-4.453c0.52-1.457,1.037-2.867,1.555-4.233
			c0.521-1.364,1.028-2.613,1.524-3.752c0.478,1.139,0.974,2.384,1.493,3.738c0.518,1.354,1.041,2.764,1.57,4.232
			c0.527,1.468,1.051,2.957,1.571,4.468c0.517,1.507,1.016,2.984,1.491,4.433h4.188c-1.267-3.659-2.615-7.318-4.048-10.979
			c-1.431-3.659-2.925-7.164-4.48-10.513H-91.317z"/>
		<path fill="#787B78" d="M-78.605,11.248c0,1.426,0.211,2.677,0.636,3.752c0.423,1.076,0.987,1.97,1.69,2.685
			c0.702,0.712,1.507,1.25,2.418,1.611c0.91,0.362,1.839,0.542,2.791,0.542c2.234,0,3.976-0.693,5.228-2.076
			c1.249-1.389,1.874-3.453,1.874-6.203c0-0.208-0.006-0.439-0.014-0.698c-0.012-0.26-0.027-0.492-0.048-0.696h-10.7
			c0.104-1.305,0.563-2.311,1.381-3.026c0.816-0.712,2.001-1.067,3.553-1.067c0.908,0,1.74,0.08,2.495,0.247
			c0.755,0.164,1.35,0.34,1.783,0.527l0.496-3.071c-0.206-0.104-0.491-0.21-0.854-0.325c-0.36-0.114-0.773-0.217-1.24-0.31
			c-0.464-0.094-0.966-0.172-1.504-0.233c-0.538-0.063-1.085-0.093-1.644-0.093c-1.427,0-2.667,0.211-3.722,0.636
			c-1.054,0.424-1.922,1.015-2.605,1.767c-0.681,0.755-1.188,1.645-1.519,2.668C-78.441,8.905-78.605,10.028-78.605,11.248z
			 M-67.721,12.923c0,0.516-0.071,1.008-0.216,1.473c-0.146,0.465-0.357,0.868-0.637,1.21c-0.278,0.34-0.619,0.607-1.022,0.807
			c-0.403,0.195-0.884,0.294-1.441,0.294c-0.58,0-1.087-0.107-1.521-0.324c-0.434-0.219-0.801-0.504-1.101-0.854
			c-0.301-0.351-0.532-0.757-0.698-1.21c-0.166-0.455-0.279-0.92-0.34-1.396H-67.721z"/>
		<path fill="#787B78" d="M-59.999,18.907c0.724,0.207,1.665,0.406,2.821,0.591c1.16,0.186,2.441,0.278,3.848,0.278
			c1.322,0,2.43-0.182,3.317-0.543c0.89-0.362,1.596-0.867,2.125-1.519c0.527-0.652,0.897-1.438,1.116-2.357
			c0.218-0.922,0.325-1.93,0.325-3.024V3.216h-3.751v8.53c0,0.866-0.059,1.604-0.172,2.215c-0.113,0.61-0.3,1.106-0.558,1.49
			c-0.259,0.382-0.61,0.662-1.054,0.836c-0.447,0.175-0.988,0.265-1.629,0.265c-0.477,0-0.973-0.033-1.488-0.093
			c-0.517-0.063-0.899-0.114-1.148-0.157V3.216h-3.753V18.907z"/>
		<path fill="#787B78" d="M-42.757,11.248c0,1.426,0.213,2.677,0.638,3.752c0.423,1.076,0.988,1.97,1.69,2.685
			c0.703,0.712,1.509,1.25,2.418,1.611c0.911,0.362,1.839,0.542,2.791,0.542c2.232,0,3.976-0.693,5.226-2.076
			c1.251-1.389,1.878-3.453,1.878-6.203c0-0.208-0.008-0.439-0.016-0.698c-0.012-0.26-0.027-0.492-0.048-0.696h-10.699
			c0.104-1.305,0.563-2.311,1.379-3.026c0.817-0.712,2.002-1.067,3.551-1.067c0.91,0,1.741,0.08,2.498,0.247
			c0.754,0.164,1.349,0.34,1.783,0.527l0.494-3.071c-0.207-0.104-0.488-0.21-0.851-0.325c-0.363-0.114-0.777-0.217-1.241-0.31
			c-0.465-0.094-0.967-0.172-1.503-0.233c-0.539-0.063-1.085-0.093-1.645-0.093c-1.427,0-2.667,0.211-3.722,0.636
			c-1.055,0.424-1.924,1.015-2.604,1.767c-0.684,0.755-1.189,1.645-1.521,2.668C-42.59,8.905-42.757,10.028-42.757,11.248z
			 M-31.87,12.923c0,0.516-0.073,1.008-0.216,1.473c-0.146,0.465-0.359,0.868-0.638,1.21c-0.279,0.34-0.62,0.607-1.021,0.807
			c-0.403,0.195-0.887,0.294-1.444,0.294c-0.579,0-1.085-0.107-1.519-0.324c-0.434-0.219-0.801-0.504-1.101-0.854
			c-0.301-0.351-0.534-0.757-0.697-1.21c-0.167-0.455-0.281-0.92-0.342-1.396H-31.87z"/>
		<path fill="#787B78" d="M-12.798,16.799c-0.415-0.435-0.956-1.043-1.628-1.828c-0.672-0.787-1.39-1.659-2.154-2.623
			c-0.769-0.961-1.536-1.964-2.312-3.008c-0.776-1.042-1.475-2.042-2.094-2.991h8.374V3.216h-12.901v2.326
			c0.455,0.827,1.024,1.727,1.705,2.697c0.684,0.973,1.386,1.949,2.11,2.932c0.724,0.98,1.441,1.917,2.153,2.806
			c0.714,0.89,1.351,1.664,1.908,2.325h-7.474v3.133h12.312V16.799z"/>
		<path fill="#787B78" d="M3.827,3.712C3.104,3.525,2.16,3.334,1.003,3.139c-1.157-0.197-2.43-0.297-3.813-0.297
			c-1.303,0-2.395,0.188-3.272,0.562c-0.879,0.37-1.583,0.886-2.107,1.548c-0.528,0.662-0.907,1.455-1.134,2.374
			c-0.228,0.92-0.341,1.928-0.341,3.023v9.086h3.752v-8.497c0-1.737,0.254-2.978,0.76-3.72C-4.646,6.471-3.762,6.1-2.501,6.1
			c0.454,0,0.936,0.021,1.441,0.063c0.505,0.04,0.884,0.091,1.132,0.154v13.117h3.755V3.712z"/>
		<path fill="#787B78" d="M7.701,11.248c0,1.426,0.212,2.677,0.637,3.752c0.423,1.075,0.986,1.97,1.689,2.685
			c0.702,0.712,1.509,1.25,2.42,1.611c0.909,0.362,1.839,0.542,2.79,0.542c2.233,0,3.974-0.693,5.226-2.076
			c1.251-1.389,1.876-3.453,1.876-6.203c0-0.208-0.005-0.439-0.015-0.698c-0.013-0.261-0.027-0.492-0.047-0.696H11.579
			c0.101-1.305,0.563-2.311,1.379-3.026c0.816-0.712,2-1.067,3.552-1.067c0.91,0,1.74,0.08,2.495,0.247
			c0.756,0.164,1.349,0.34,1.785,0.527l0.495-3.071c-0.208-0.104-0.492-0.211-0.853-0.325c-0.363-0.114-0.776-0.217-1.241-0.31
			c-0.467-0.094-0.967-0.172-1.505-0.233c-0.537-0.063-1.085-0.093-1.643-0.093c-1.426,0-2.667,0.211-3.721,0.636
			c-1.056,0.424-1.925,1.015-2.604,1.767C9.035,5.97,8.529,6.859,8.197,7.883C7.867,8.905,7.701,10.028,7.701,11.248z
			 M18.586,12.923c0,0.516-0.071,1.008-0.216,1.473c-0.146,0.465-0.357,0.868-0.636,1.21c-0.279,0.34-0.619,0.607-1.024,0.807
			c-0.401,0.195-0.884,0.294-1.441,0.294c-0.579,0-1.084-0.107-1.519-0.324c-0.435-0.219-0.804-0.504-1.103-0.854
			c-0.298-0.351-0.532-0.757-0.696-1.21c-0.168-0.455-0.28-0.92-0.344-1.396H18.586z"/>
		<path fill="#787B78" d="M31.954,2.905c-1.115,0.02-2.042,0.145-2.774,0.373c-0.736,0.226-1.32,0.552-1.753,0.976
			c-0.437,0.425-0.739,0.952-0.917,1.581c-0.174,0.633-0.262,1.351-0.262,2.157v18.67l3.751,0.619V8.705
			c0-0.454,0.037-0.838,0.108-1.148c0.075-0.309,0.202-0.573,0.39-0.789c0.185-0.217,0.438-0.383,0.759-0.496
			c0.32-0.114,0.729-0.201,1.226-0.265L31.954,2.905z"/>
		<path fill="#787B78" d="M40.916,19.838c1.24,0,2.283-0.154,3.132-0.465c0.85-0.311,1.525-0.745,2.033-1.303
			c0.507-0.558,0.865-1.235,1.084-2.032c0.218-0.795,0.325-1.669,0.325-2.619V3.587c-0.58-0.124-1.452-0.272-2.62-0.448
			c-1.169-0.176-2.485-0.264-3.954-0.264c-0.971,0-1.86,0.092-2.667,0.279c-0.807,0.186-1.493,0.486-2.063,0.899
			c-0.567,0.414-1.013,0.951-1.333,1.61c-0.32,0.663-0.48,1.479-0.48,2.451c0,0.931,0.181,1.716,0.544,2.357
			c0.36,0.641,0.852,1.163,1.473,1.566c0.619,0.403,1.337,0.691,2.153,0.866c0.818,0.178,1.671,0.265,2.562,0.265
			c0.412,0,0.847-0.024,1.301-0.077c0.455-0.052,0.941-0.139,1.457-0.262v0.619c0,0.435-0.051,0.847-0.154,1.241
			c-0.104,0.391-0.284,0.738-0.543,1.038c-0.258,0.299-0.6,0.53-1.024,0.698c-0.423,0.164-0.955,0.247-1.596,0.247
			c-0.869,0-1.664-0.062-2.391-0.186c-0.721-0.125-1.312-0.268-1.765-0.434l-0.465,3.037c0.477,0.167,1.167,0.332,2.078,0.496
			C38.91,19.755,39.884,19.838,40.916,19.838z M41.227,5.851c1.158,0,2.036,0.062,2.635,0.188v4.154
			c-0.205,0.063-0.504,0.126-0.897,0.188c-0.394,0.06-0.827,0.093-1.305,0.093c-0.414,0-0.833-0.033-1.254-0.093
			c-0.425-0.062-0.807-0.178-1.148-0.341c-0.342-0.165-0.614-0.4-0.822-0.699c-0.207-0.3-0.312-0.678-0.312-1.131
			c0-0.89,0.281-1.504,0.84-1.846C39.521,6.022,40.275,5.851,41.227,5.851z"/>
	</g>
	<g>
		<path fill="#383178" d="M-51.301-0.486c0-0.704-0.227-1.262-0.683-1.677c-0.455-0.413-0.992-0.62-1.611-0.62
			c-0.641,0-1.19,0.207-1.646,0.62c-0.453,0.415-0.681,0.973-0.681,1.677c0,0.722,0.228,1.292,0.681,1.705
			c0.456,0.412,1.006,0.62,1.646,0.62c0.619,0,1.156-0.208,1.611-0.62C-51.527,0.806-51.301,0.235-51.301-0.486z M-51.705-21.452
			h-3.75v16.221h3.75V-21.452z"/>
		<path fill="#383178" d="M-46.93-5.759c0.725,0.204,1.664,0.403,2.822,0.587c1.159,0.188,2.44,0.279,3.848,0.279
			c1.322,0,2.43-0.179,3.317-0.541c0.89-0.361,1.597-0.869,2.123-1.521c0.529-0.65,0.901-1.436,1.118-2.356
			c0.217-0.918,0.326-1.928,0.326-3.024v-9.116h-3.754v8.528c0,0.867-0.057,1.607-0.17,2.217c-0.113,0.61-0.3,1.106-0.558,1.488
			c-0.259,0.384-0.61,0.662-1.054,0.838c-0.446,0.175-0.988,0.264-1.629,0.264c-0.478,0-0.973-0.03-1.488-0.093
			c-0.518-0.062-0.899-0.112-1.148-0.156v-13.086h-3.754V-5.759z"/>
		<path fill="#383178" d="M-28.973-0.953l3.753,0.619v-4.897h5.768v-3.135h-5.768v-6.604c0-1.303,0.206-2.233,0.62-2.792
			c0.413-0.558,1.116-0.838,2.108-0.838c0.683,0,1.289,0.073,1.813,0.218c0.527,0.145,0.947,0.28,1.259,0.403l0.619-2.978
			c-0.434-0.186-1.003-0.377-1.706-0.573c-0.704-0.196-1.53-0.293-2.482-0.293c-1.157,0-2.122,0.152-2.898,0.463
			c-0.775,0.311-1.389,0.761-1.845,1.35c-0.455,0.59-0.775,1.302-0.963,2.139c-0.186,0.839-0.278,1.794-0.278,2.871V-0.953z"/>
		<path fill="#383178" d="M-17.001-13.418c0,1.426,0.212,2.677,0.637,3.749c0.421,1.077,0.986,1.971,1.688,2.686
			c0.703,0.711,1.51,1.249,2.42,1.61s1.84,0.543,2.789,0.543c2.234,0,3.976-0.691,5.228-2.077c1.251-1.386,1.877-3.452,1.877-6.202
			c0-0.207-0.005-0.439-0.017-0.698c-0.01-0.259-0.024-0.491-0.046-0.697h-10.699c0.103-1.303,0.563-2.312,1.38-3.024
			c0.814-0.713,2-1.07,3.551-1.07c0.909,0,1.74,0.083,2.496,0.248c0.754,0.167,1.348,0.342,1.783,0.527l0.495-3.07
			c-0.204-0.104-0.489-0.212-0.851-0.323c-0.361-0.116-0.776-0.219-1.24-0.312c-0.466-0.093-0.968-0.172-1.506-0.231
			c-0.537-0.062-1.086-0.095-1.645-0.095c-1.424,0-2.667,0.213-3.721,0.638c-1.055,0.421-1.922,1.011-2.604,1.767
			c-0.683,0.755-1.19,1.643-1.521,2.668C-16.835-15.762-17.001-14.638-17.001-13.418z M-6.117-11.745
			c0,0.517-0.071,1.008-0.215,1.475C-6.478-9.808-6.69-9.404-6.968-9.062c-0.28,0.339-0.621,0.609-1.024,0.804
			c-0.403,0.196-0.884,0.295-1.442,0.295c-0.578,0-1.086-0.107-1.519-0.324c-0.436-0.216-0.804-0.501-1.1-0.853
			c-0.301-0.352-0.534-0.755-0.698-1.211c-0.166-0.454-0.282-0.92-0.342-1.395H-6.117z"/>
		<path fill="#383178" d="M7.251-21.761c-1.117,0.021-2.042,0.143-2.777,0.371c-0.733,0.225-1.317,0.553-1.751,0.978
			c-0.433,0.423-0.738,0.95-0.915,1.58c-0.176,0.632-0.263,1.35-0.263,2.156V1.993l3.752,0.62v-18.577
			c0-0.455,0.036-0.837,0.109-1.146c0.072-0.312,0.2-0.575,0.386-0.792c0.188-0.216,0.44-0.384,0.761-0.495
			c0.32-0.115,0.729-0.203,1.226-0.265L7.251-21.761z"/>
		<path fill="#383178" d="M15.004-0.486c0-0.704-0.229-1.262-0.682-1.677c-0.456-0.413-0.994-0.62-1.613-0.62
			c-0.643,0-1.189,0.207-1.645,0.62c-0.455,0.415-0.682,0.973-0.682,1.677c0,0.722,0.227,1.292,0.682,1.705
			c0.455,0.412,1.002,0.619,1.645,0.619c0.619,0,1.157-0.207,1.613-0.619C14.775,0.806,15.004,0.235,15.004-0.486z M14.601-21.452
			h-3.752v16.221h3.752V-21.452z"/>
		<path fill="#383178" d="M32.773-19.808c0-2.586-0.658-4.475-1.969-5.676c-1.314-1.2-3.324-1.799-6.032-1.799
			c-0.994,0-1.96,0.083-2.9,0.25c-0.94,0.163-1.793,0.381-2.558,0.649l0.682,3.194c0.641-0.269,1.369-0.486,2.187-0.651
			c0.816-0.166,1.7-0.246,2.653-0.246c1.507,0,2.582,0.309,3.225,0.928c0.641,0.621,0.961,1.54,0.961,2.76v0.619
			c-0.374-0.185-0.864-0.371-1.475-0.558c-0.609-0.185-1.309-0.276-2.092-0.276c-1.034,0-1.98,0.163-2.839,0.495
			c-0.858,0.33-1.592,0.816-2.201,1.457c-0.61,0.641-1.085,1.441-1.427,2.404c-0.342,0.961-0.511,2.073-0.511,3.333
			c0,1.179,0.179,2.266,0.541,3.255c0.361,0.994,0.889,1.842,1.583,2.546c0.691,0.702,1.534,1.251,2.527,1.643
			c0.991,0.392,2.118,0.588,3.38,0.588c1.22,0,2.375-0.092,3.474-0.279c1.094-0.185,2.026-0.383,2.791-0.588V-19.808z
			 M22.323-12.924c0-1.592,0.346-2.756,1.038-3.487c0.691-0.735,1.587-1.102,2.683-1.102c0.601,0,1.162,0.08,1.69,0.246
			c0.527,0.166,0.955,0.362,1.287,0.591v8.404c-0.271,0.062-0.601,0.118-0.993,0.171c-0.393,0.051-0.888,0.077-1.489,0.077
			c-1.365,0-2.407-0.45-3.131-1.35C22.684-10.271,22.323-11.458,22.323-12.924z"/>
		<path fill="#383178" d="M36.648-13.418c0,1.426,0.213,2.677,0.637,3.749c0.422,1.077,0.989,1.971,1.691,2.686
			c0.701,0.711,1.508,1.248,2.418,1.61c0.908,0.361,1.84,0.543,2.792,0.543c2.233,0,3.974-0.691,5.226-2.077
			c1.251-1.386,1.876-3.452,1.876-6.202c0-0.207-0.006-0.439-0.015-0.698c-0.013-0.259-0.027-0.491-0.047-0.697H40.525
			c0.104-1.303,0.563-2.312,1.38-3.024c0.818-0.713,2.002-1.07,3.551-1.07c0.911,0,1.745,0.083,2.498,0.248
			c0.754,0.167,1.351,0.342,1.783,0.527l0.495-3.07c-0.207-0.104-0.49-0.212-0.853-0.323c-0.361-0.116-0.776-0.219-1.239-0.312
			c-0.465-0.093-0.967-0.172-1.505-0.231c-0.536-0.062-1.085-0.095-1.643-0.095c-1.428,0-2.667,0.213-3.723,0.638
			c-1.054,0.421-1.923,1.011-2.605,1.767c-0.681,0.755-1.188,1.643-1.519,2.668C36.817-15.762,36.648-14.639,36.648-13.418z
			 M47.535-11.745c0,0.516-0.072,1.008-0.216,1.475c-0.146,0.463-0.358,0.866-0.638,1.209c-0.278,0.339-0.619,0.609-1.021,0.804
			c-0.403,0.196-0.887,0.295-1.442,0.295c-0.582,0-1.088-0.107-1.521-0.324c-0.433-0.217-0.801-0.501-1.101-0.853
			c-0.299-0.352-0.532-0.755-0.698-1.211c-0.166-0.454-0.277-0.92-0.34-1.395H47.535z"/>
		<path fill="#383178" d="M55.256-5.76c0.726,0.205,1.666,0.403,2.823,0.588c1.159,0.188,2.438,0.279,3.847,0.279
			c1.321,0,2.428-0.179,3.317-0.541c0.89-0.361,1.596-0.869,2.125-1.521c0.528-0.65,0.898-1.436,1.115-2.356
			c0.219-0.918,0.326-1.928,0.326-3.024v-9.116h-3.752v8.528c0,0.867-0.058,1.607-0.171,2.217c-0.115,0.61-0.299,1.106-0.557,1.488
			c-0.26,0.384-0.611,0.662-1.056,0.838c-0.446,0.175-0.985,0.264-1.631,0.264c-0.473,0-0.969-0.03-1.485-0.093
			c-0.518-0.062-0.9-0.112-1.148-0.156v-13.086h-3.754V-5.76z"/>
		<path fill="#383178" d="M73.211-0.953l3.756,0.619v-4.897h5.767v-3.135h-5.767v-6.604c0-1.303,0.206-2.233,0.617-2.792
			c0.415-0.558,1.119-0.838,2.111-0.838c0.681,0,1.285,0.073,1.813,0.218c0.529,0.145,0.947,0.28,1.256,0.403l0.621-2.978
			c-0.434-0.186-1.001-0.378-1.703-0.573c-0.705-0.196-1.532-0.293-2.484-0.293c-1.155,0-2.123,0.152-2.897,0.463
			c-0.777,0.311-1.393,0.761-1.846,1.35c-0.456,0.59-0.776,1.302-0.961,2.139c-0.188,0.839-0.282,1.794-0.282,2.871V-0.953z"/>
		<path fill="#383178" d="M85.185-13.418c0,1.426,0.21,2.677,0.634,3.749c0.426,1.077,0.989,1.971,1.691,2.686
			c0.704,0.711,1.511,1.248,2.421,1.61C90.838-5.012,91.77-4.83,92.72-4.83c2.235,0,3.976-0.691,5.227-2.077
			c1.25-1.386,1.875-3.452,1.875-6.202c0-0.207-0.003-0.439-0.015-0.698s-0.025-0.491-0.047-0.697H89.062
			c0.102-1.303,0.563-2.312,1.379-3.024c0.817-0.713,2-1.07,3.552-1.07c0.908,0,1.742,0.083,2.498,0.248
			c0.754,0.167,1.348,0.342,1.78,0.527l0.498-3.07c-0.209-0.104-0.493-0.212-0.854-0.323c-0.362-0.116-0.775-0.219-1.241-0.312
			c-0.465-0.093-0.966-0.172-1.503-0.231c-0.538-0.062-1.086-0.095-1.645-0.095c-1.426,0-2.667,0.213-3.722,0.638
			c-1.054,0.421-1.923,1.011-2.605,1.767c-0.68,0.755-1.188,1.643-1.519,2.668C85.351-15.762,85.185-14.639,85.185-13.418z
			 M96.07-11.745c0,0.516-0.073,1.008-0.218,1.475c-0.145,0.463-0.357,0.866-0.635,1.209c-0.278,0.339-0.62,0.609-1.022,0.804
			c-0.404,0.196-0.885,0.295-1.443,0.295c-0.578,0-1.086-0.107-1.521-0.324c-0.433-0.217-0.801-0.501-1.1-0.853
			c-0.3-0.352-0.531-0.755-0.697-1.211c-0.166-0.454-0.279-0.92-0.341-1.395H96.07z"/>
	</g>
	<polygon fill="#00ACEB" points="-79.134,-11.068 -79.134,0.423 -69.184,-5.321 -59.232,-11.068 -69.184,-16.813 -79.134,-22.558 	
		"/>
	<polygon fill="#00ACEB" points="-94.609,-11.068 -94.609,0.423 -84.656,-5.321 -74.706,-11.068 -84.656,-16.813 -94.609,-22.558 	
		"/>
</symbol>
<use xlink:href="#Nuevo_símbolo"  width="199.642" height="54.563" x="-99.82" y="-27.282" transform="matrix(0.7465 0 0 -0.7465 74.5142 20.3647)" overflow="visible"/>
</svg>
