<?xml version="1.0" encoding="utf-8"?>
<!-- Generator: Adobe Illustrator 15.0.0, SVG Export Plug-In . SVG Version: 6.00 Build 0)  -->
<!DOCTYPE svg PUBLIC "-//W3C//DTD SVG 1.1//EN" "http://www.w3.org/Graphics/SVG/1.1/DTD/svg11.dtd">
<svg version="1.1" id="Layer_1" xmlns="http://www.w3.org/2000/svg" xmlns:xlink="http://www.w3.org/1999/xlink" x="0px" y="0px"
	 width="490.391px" height="99.21px" viewBox="0 0 490.391 99.21" enable-background="new 0 0 490.391 99.21" xml:space="preserve">
<g>
	<g>
		
			<rect x="36.391" y="16.058" transform="matrix(0.707 -0.7072 0.7072 0.707 -1.5836 32.5844)" fill-rule="evenodd" clip-rule="evenodd" fill="#FFFFFF" width="4.291" height="4.29"/>
		
			<rect x="49.742" y="19.36" transform="matrix(0.7071 -0.7071 0.7071 0.7071 0.1657 42.567)" fill-rule="evenodd" clip-rule="evenodd" fill="#FFFFFF" width="3.447" height="3.447"/>
		
			<rect x="14.822" y="22.159" transform="matrix(0.7071 -0.7071 0.7071 0.7071 -11.8656 18.269)" fill-rule="evenodd" clip-rule="evenodd" fill="#FFFFFF" width="2.596" height="2.596"/>
		
			<rect x="38.941" y="5.172" transform="matrix(0.7069 -0.7073 0.7073 0.7069 7.5258 29.615)" fill-rule="evenodd" clip-rule="evenodd" fill="#FFFFFF" width="1.11" height="1.11"/>
		
			<rect x="10.24" y="7.021" transform="matrix(0.7069 -0.7073 0.7073 0.7069 -2.1949 9.8567)" fill-rule="evenodd" clip-rule="evenodd" fill="#FFFFFF" width="1.11" height="1.11"/>
		
			<rect x="28.89" y="19.371" transform="matrix(0.7069 -0.7073 0.7073 0.7069 -5.4636 26.6681)" fill-rule="evenodd" clip-rule="evenodd" fill="#FFFFFF" width="1.11" height="1.11"/>
		
			<rect x="59.34" y="8.722" transform="matrix(0.7069 -0.7073 0.7073 0.7069 10.9944 45.0849)" fill-rule="evenodd" clip-rule="evenodd" fill="#FFFFFF" width="1.11" height="1.11"/>
		<path fill-rule="evenodd" clip-rule="evenodd" fill="#FFFFFF" d="M20.776,2.921c-0.19,0.206-0.421,0.31-0.691,0.31
			s-0.508-0.104-0.715-0.31c-0.191-0.19-0.286-0.421-0.286-0.691c0-0.27,0.095-0.508,0.286-0.715
			c0.207-0.19,0.445-0.285,0.715-0.285s0.5,0.095,0.691,0.285c0.207,0.207,0.31,0.445,0.31,0.715
			C21.086,2.5,20.983,2.731,20.776,2.921z"/>
		<path fill-rule="evenodd" clip-rule="evenodd" fill="#FFFFFF" d="M34.478,12.024c-0.095,0.096-0.214,0.144-0.357,0.144
			s-0.262-0.048-0.357-0.144c-0.095-0.095-0.143-0.214-0.143-0.357c0-0.143,0.048-0.262,0.143-0.357
			c0.095-0.095,0.214-0.143,0.357-0.143s0.262,0.048,0.357,0.143c0.096,0.096,0.143,0.215,0.143,0.357
			C34.621,11.81,34.574,11.929,34.478,12.024z"/>
		<path fill-rule="evenodd" clip-rule="evenodd" fill="#FFFFFF" d="M14.438,16.814c-0.143,0.144-0.318,0.215-0.524,0.215
			s-0.381-0.071-0.524-0.215c-0.143-0.143-0.214-0.317-0.214-0.524c0-0.206,0.072-0.381,0.214-0.524
			c0.143-0.143,0.318-0.214,0.524-0.214s0.381,0.071,0.524,0.214c0.143,0.144,0.214,0.318,0.214,0.524
			C14.652,16.497,14.58,16.671,14.438,16.814z"/>
		<path fill-rule="evenodd" clip-rule="evenodd" fill="#FFFFFF" d="M37.409,24.487c-0.127,0.144-0.286,0.215-0.477,0.215
			s-0.357-0.071-0.5-0.215c-0.127-0.127-0.19-0.286-0.19-0.477s0.063-0.357,0.19-0.5c0.143-0.127,0.31-0.19,0.5-0.19
			s0.35,0.063,0.477,0.19c0.143,0.143,0.214,0.31,0.214,0.5S37.552,24.36,37.409,24.487z"/>
		<path fill-rule="evenodd" clip-rule="evenodd" fill="#FFFFFF" d="M51.516,3.064c-0.095,0.111-0.222,0.167-0.381,0.167
			c-0.159,0-0.294-0.056-0.405-0.167c-0.095-0.095-0.143-0.222-0.143-0.381s0.048-0.294,0.143-0.405
			c0.111-0.095,0.246-0.143,0.405-0.143c0.159,0,0.286,0.048,0.381,0.143c0.111,0.111,0.167,0.246,0.167,0.405
			S51.628,2.969,51.516,3.064z"/>
		<path fill-rule="evenodd" clip-rule="evenodd" fill="#FFFFFF" d="M3.309,16.457C3.214,16.552,3.094,16.6,2.952,16.6
			c-0.143,0-0.262-0.048-0.357-0.144c-0.096-0.095-0.143-0.214-0.143-0.357c0-0.143,0.047-0.262,0.143-0.357
			c0.095-0.096,0.214-0.143,0.357-0.143c0.143,0,0.262,0.047,0.357,0.143c0.095,0.096,0.143,0.215,0.143,0.357
			C3.452,16.243,3.405,16.362,3.309,16.457z"/>
		<path fill-rule="evenodd" clip-rule="evenodd" fill="#FFFFFF" d="M64.552,17.696c-0.096,0.096-0.215,0.143-0.357,0.143
			c-0.143,0-0.262-0.047-0.357-0.143c-0.096-0.096-0.143-0.215-0.143-0.357s0.047-0.262,0.143-0.357
			c0.095-0.096,0.214-0.143,0.357-0.143c0.143,0,0.262,0.047,0.357,0.143c0.095,0.096,0.143,0.215,0.143,0.357
			S64.647,17.6,64.552,17.696z"/>
		<path fill-rule="evenodd" clip-rule="evenodd" fill="#FFFFFF" d="M29.139,82.57c-0.159,0.175-0.357,0.262-0.596,0.262
			s-0.445-0.087-0.62-0.262c-0.159-0.159-0.238-0.357-0.238-0.596s0.08-0.445,0.238-0.62c0.175-0.158,0.381-0.238,0.62-0.238
			s0.437,0.08,0.596,0.238c0.175,0.175,0.262,0.382,0.262,0.62S29.314,82.411,29.139,82.57z"/>
		<path fill-rule="evenodd" clip-rule="evenodd" fill="#FFFFFF" d="M27.063,91.152c-0.436,0.47-0.972,0.704-1.608,0.704
			s-1.189-0.234-1.658-0.704c-0.436-0.435-0.653-0.971-0.653-1.607s0.218-1.189,0.653-1.658c0.469-0.436,1.021-0.653,1.658-0.653
			s1.173,0.218,1.608,0.653c0.469,0.469,0.704,1.021,0.704,1.658S27.531,90.717,27.063,91.152z"/>
		<path fill-rule="evenodd" clip-rule="evenodd" fill="#FFFFFF" d="M33.671,91.785c-0.254,0.255-0.556,0.382-0.906,0.382
			s-0.651-0.127-0.905-0.382c-0.254-0.254-0.381-0.556-0.381-0.904c0-0.35,0.127-0.652,0.381-0.906
			c0.254-0.254,0.556-0.381,0.905-0.381s0.651,0.127,0.906,0.381c0.254,0.254,0.381,0.557,0.381,0.906
			C34.052,91.229,33.925,91.531,33.671,91.785z"/>
		<path fill-rule="evenodd" clip-rule="evenodd" fill="#FFFFFF" d="M30.726,97.814c-0.095,0.111-0.214,0.167-0.357,0.167
			s-0.27-0.056-0.381-0.167c-0.095-0.095-0.143-0.214-0.143-0.357c0-0.143,0.048-0.27,0.143-0.381
			c0.111-0.096,0.238-0.144,0.381-0.144s0.262,0.048,0.357,0.144c0.111,0.111,0.167,0.238,0.167,0.381
			C30.893,97.6,30.838,97.719,30.726,97.814z"/>
		<path fill-rule="evenodd" clip-rule="evenodd" fill="#FFFFFF" d="M48.871,12.239c-0.445,0.461-0.993,0.691-1.644,0.691
			s-1.208-0.23-1.668-0.691c-0.445-0.444-0.667-0.993-0.667-1.645s0.223-1.207,0.667-1.668c0.46-0.444,1.017-0.667,1.668-0.667
			s1.199,0.223,1.644,0.667c0.461,0.461,0.691,1.017,0.691,1.668S49.332,11.794,48.871,12.239z"/>
		<path fill-rule="evenodd" clip-rule="evenodd" fill="#FFFFFF" d="M24.771,15.466c-0.62,0.62-1.366,0.93-2.24,0.93
			c-0.874,0-1.62-0.31-2.24-0.93c-0.62-0.619-0.929-1.366-0.929-2.24c0-0.873,0.31-1.62,0.929-2.239c0.62-0.62,1.366-0.93,2.24-0.93
			c0.874,0,1.621,0.31,2.24,0.93c0.62,0.619,0.929,1.366,0.929,2.239C25.7,14.1,25.391,14.847,24.771,15.466z"/>
		<g>
			<polygon fill-rule="evenodd" clip-rule="evenodd" fill="#CCCCCC" points="33.17,59.214 0.57,26.615 65.77,26.615 			"/>
		</g>
		<g>
			<polygon fill-rule="evenodd" clip-rule="evenodd" fill="#2F5199" points="42.97,51.464 42.97,69.014 34.17,60.214 			"/>
		</g>
		<g>
			<polygon fill-rule="evenodd" clip-rule="evenodd" fill="#FFBA00" points="23.42,70.014 23.42,51.464 41.97,70.014 			"/>
		</g>
		<g>
			<polygon fill-rule="evenodd" clip-rule="evenodd" fill="#B42500" points="42.97,71.415 42.97,89.964 24.42,71.415 			"/>
		</g>
	</g>
	<g>
		<path fill-rule="evenodd" clip-rule="evenodd" fill="#FFFFFF" d="M269.27,26.964v52.9h-4.75l-26.25-48.851
			c0.3,4.601,0.45,10.4,0.45,17.4v31.45h-3.45v-52.9h4.75l26.2,48.85c-0.334-5.166-0.5-10.35-0.5-15.55v-33.3H269.27z
			 M217.62,26.964v52.9h-3.7v-52.9H217.62z M287.92,79.865v-52.65h23.851l-0.05,1.05h-22.7v24.4h19.6v1.05h-19.6v26.15H287.92z
			 M176.12,27.865c2.3-1.101,4.934-1.65,7.9-1.65c3.167,0,5.883,0.467,8.15,1.4c2.233,0.966,4.433,2.383,6.6,4.25l-2.2,2.5
			c-2-1.801-3.95-3.101-5.85-3.9c-1.933-0.733-4.133-1.1-6.6-1.1c-3.466,0-6.25,0.866-8.35,2.6c-2.133,1.733-3.2,4.017-3.2,6.85
			c0,1.934,0.417,3.551,1.25,4.851c0.8,1.3,2.1,2.45,3.9,3.45c1.8,0.966,4.3,1.949,7.5,2.949c3.533,1.067,6.383,2.217,8.55,3.45
			c2.167,1.233,3.8,2.816,4.9,4.75c1.133,1.9,1.7,4.334,1.7,7.3c0,2.934-0.716,5.567-2.15,7.9c-1.433,2.3-3.417,4.1-5.95,5.4
			c-2.6,1.233-5.567,1.85-8.9,1.85c-3.4,0-6.433-0.55-9.1-1.65c-2.733-1.199-5.217-2.816-7.45-4.85l2.25-2.4
			c1.967,1.834,4.067,3.25,6.3,4.25c2.3,0.934,4.934,1.4,7.9,1.4c3.966,0,7.183-1.05,9.65-3.15c2.5-2.1,3.75-4.983,3.75-8.649
			c0-2.3-0.417-4.184-1.25-5.65c-0.8-1.5-2.117-2.767-3.95-3.8c-1.8-1.066-4.383-2.1-7.75-3.1c-5.367-1.667-9.167-3.551-11.4-5.65
			c-2.3-2.1-3.45-4.95-3.45-8.55c0-2.467,0.65-4.634,1.95-6.5C172.053,30.514,173.82,28.998,176.12,27.865z M159.12,28.264h-23v23.2
			h19.85v1h-19.85v26.3h23.75v1.101h-24.9v-52.65h24.25L159.12,28.264z M123.02,27.214l-17.45,52.65h-1.4l-17.4-52.65h1.15
			l17.05,51.55l16.75-51.55H123.02z M480.32,29.665c3.033,2.1,5.384,5.184,7.05,9.25c1.634,4.033,2.45,8.934,2.45,14.7
			c0,8.466-1.767,15.083-5.3,19.85c-3.601,4.7-8.617,7.05-15.05,7.05c-4.134,0-7.75-1.05-10.851-3.149
			c-3.033-2.101-5.383-5.167-7.05-9.2c-1.634-4-2.45-8.8-2.45-14.4c0-5.633,0.834-10.517,2.5-14.649
			c1.7-4.134,4.084-7.284,7.15-9.45c3.1-2.167,6.666-3.25,10.7-3.25C473.603,26.415,477.22,27.498,480.32,29.665z M459.27,30.564
			c-2.867,2.101-5.101,5.101-6.7,9c-1.533,3.9-2.3,8.634-2.3,14.2c0,5.4,0.767,10.05,2.3,13.95c1.6,3.9,3.833,6.833,6.7,8.8
			c2.899,2.066,6.3,3.101,10.2,3.101c6.133,0,10.866-2.267,14.199-6.801c3.334-4.5,5-10.899,5-19.199
			c0-8.367-1.733-14.817-5.199-19.351c-3.4-4.5-8.067-6.75-14-6.75C465.57,27.514,462.17,28.531,459.27,30.564z M433.52,30.665
			c2.733,2.366,4.1,5.733,4.1,10.1c0,4.233-1.184,7.434-3.55,9.601c-2.267,2.233-5.3,3.566-9.1,4l14.8,25.5h-1.4l-14.6-25.351
			h-13.25v25.351h-1.15v-52.65h11.15C426.52,27.214,430.853,28.365,433.52,30.665z M420.32,28.264h-9.8v25.15h11.95
			c4.166,0,7.55-1.017,10.149-3.05c2.601-2.067,3.9-5.267,3.9-9.601c0-4.066-1.283-7.149-3.851-9.25
			C430.204,29.348,426.087,28.264,420.32,28.264z M398.22,28.264h-16.4v51.601h-1.05V28.264h-16.4v-1.05h34.05L398.22,28.264z
			 M346.07,27.214v51.55h22.35l-0.25,1.101h-23.25v-52.65H346.07z M325.42,27.214v52.65h-1.1v-52.65H325.42z"/>
	</g>
</g>
</svg>
