<?xml version="1.0" encoding="utf-8"?>
<!-- Generator: Adobe Illustrator 16.0.0, SVG Export Plug-In . SVG Version: 6.00 Build 0)  -->
<!DOCTYPE svg PUBLIC "-//W3C//DTD SVG 1.1//EN" "http://www.w3.org/Graphics/SVG/1.1/DTD/svg11.dtd">
<svg version="1.1" id="Layer_1" xmlns="http://www.w3.org/2000/svg" xmlns:xlink="http://www.w3.org/1999/xlink" x="0px" y="0px"
	 width="60px" height="60px" viewBox="0 0 60 60" enable-background="new 0 0 60 60" xml:space="preserve">
<path fill="#FFFFFF" d="M52.771,11.237c-0.749,0.444-1.536,0.824-2.344,1.168l-36.288,36.29c2.238,0.577,4.577,0.902,6.996,0.902
	c18.146,0,28.07-15.034,28.07-28.071c0-0.429-0.01-0.854-0.029-1.276c1.928-1.392,3.602-3.129,4.923-5.107
	c-1.769,0.785-3.67,1.315-5.666,1.553C50.47,15.475,52.033,13.541,52.771,11.237z"/>
<path fill="#FFFFFF" d="M57.165,0L44.904,12.262c-1.593-1.098-3.521-1.746-5.6-1.746c-5.45,0-9.866,4.418-9.866,9.865
	c0,0.775,0.087,1.526,0.256,2.249c-8.2-0.411-15.469-4.339-20.336-10.308c-0.849,1.457-1.335,3.151-1.335,4.959
	c0,3.423,1.741,6.443,4.389,8.212c-1.617-0.05-3.139-0.494-4.468-1.233c-0.002,0.041-0.002,0.082-0.002,0.125
	c0,4.779,3.4,8.766,7.915,9.674c-0.828,0.225-1.701,0.344-2.6,0.344c-0.636,0-1.254-0.061-1.856-0.176
	c0.871,2.72,2.895,4.924,5.493,6.047l-4.633,4.632c-1.263,0.25-2.563,0.396-3.896,0.396c-0.797,0-1.582-0.047-2.354-0.137
	c1.238,0.795,2.551,1.483,3.911,2.078L0,57.166V60l11.961-11.96l4.427-4.427l2.685-2.687l27.363-27.363L60,0H57.165z"/>
</svg>
