<?xml version="1.0" encoding="utf-8"?>
<!-- Generator: Adobe Illustrator 16.0.0, SVG Export Plug-In . SVG Version: 6.00 Build 0)  -->
<!DOCTYPE svg PUBLIC "-//W3C//DTD SVG 1.1//EN" "http://www.w3.org/Graphics/SVG/1.1/DTD/svg11.dtd">
<svg version="1.1" id="Layer_1" xmlns="http://www.w3.org/2000/svg" xmlns:xlink="http://www.w3.org/1999/xlink" x="0px" y="0px"
	 width="800px" height="800px" viewBox="0 0 800 800" enable-background="new 0 0 800 800" xml:space="preserve">
<g>
	<polygon points="613.031,506.379 613.031,499.824 608.671,502.005 	"/>
	<path d="M168.438,232.186L99.851,416.564h30.12l13.427-40.457h79.49l13.653,40.457h30.12L197.62,232.186H168.438z M150.386,355.288
		l32.676-98.239l32.936,98.239H150.386z"/>
	<path d="M386.82,281.443L233.241,127.832H2.565v390.854h303.113l153.547,153.579h338.443V281.443H386.82z M44.203,477.048V169.551
		l171.664-0.162l307.676,307.659H345.408H44.203z M457.414,611.507l-92.788-92.82h157.493h8.186h8.186h1.537l5.137,5.126
		l-0.786,0.795l-4.076,4.076l-4.108,4.076L457.414,611.507z M613.031,506.379l-4.36-4.374l4.36-2.181V506.379z M755.966,626.519
		l-3.268,3.559l-3.009,0.55H497.272l98.547-98.579l5.823-5.791l5.759-5.791l5.63-5.611v54.141h17.988v-79.588l2.814-1.747
		c21.482-13.362,41.896-28.924,60.661-46.297c0.971-0.906,1.974-1.845,2.944-2.75l-17.18-16.808h-49.24v-37.254h-17.988v37.254
		h-60.727v17.972h112.75l-14.592,10.807c-3.268,2.426-6.567,4.853-10.062,7.182c-9.899,6.924-20.091,13.395-30.379,19.218
		c-5.646,3.224-11.375,6.282-17.159,9.204l-2.156-2.151l-2.814-2.814l-0.614,0.615l-1.618-1.618l-4.367-4.335l-23.197-23.229
		l-5.791-5.759l-9.285-9.285l-5.759-5.791L428.62,323.178l327.346-0.21V626.519z"/>
	<path d="M677.478,491.834c-6.114,4.497-12.1,8.638-18.117,12.553c8.477,6.438,17.276,13.814,25.817,21.515l14.753-14.494
		c-0.938-0.874-1.941-1.747-2.879-2.653C690.937,503.06,684.369,497.431,677.478,491.834z"/>
</g>
</svg>
