<?xml version="1.0" encoding="utf-8"?>
<!-- Generator: Adobe Illustrator 16.0.0, SVG Export Plug-In . SVG Version: 6.00 Build 0)  -->
<!DOCTYPE svg PUBLIC "-//W3C//DTD SVG 1.1//EN" "http://www.w3.org/Graphics/SVG/1.1/DTD/svg11.dtd">
<svg version="1.1" id="Layer_1" xmlns="http://www.w3.org/2000/svg" xmlns:xlink="http://www.w3.org/1999/xlink" x="0px" y="0px"
	 width="100px" height="100px" viewBox="0 0 100 100" enable-background="new 0 0 100 100" xml:space="preserve">
<g>
	<path fill="#FFFFFF" d="M100,0h-9.398L73.398,17.203c-6.592-4.704-14.653-7.481-23.369-7.481C27.783,9.722,9.751,27.754,9.751,50
		c0,8.716,2.777,16.777,7.481,23.368L0,90.601V100h0.028l21.519-21.519l4.714-4.716l47.534-47.534l4.716-4.713L100,0.029V0z
		 M22.025,68.575C18.487,63.253,16.417,56.87,16.417,50c0-18.564,15.048-33.612,33.612-33.612c6.87,0,13.252,2.07,18.574,5.608
		L22.025,68.575z"/>
	<path fill="#FFFFFF" d="M78.033,31.425C81.571,36.747,83.642,43.13,83.642,50c0,18.564-15.048,33.612-33.612,33.612
		c-6.87,0-13.252-2.07-18.575-5.609l-4.794,4.794c6.592,4.704,14.653,7.481,23.369,7.481c22.246,0,40.278-18.032,40.278-40.278
		c0-8.716-2.777-16.777-7.481-23.369L78.033,31.425z"/>
</g>
</svg>
