<?xml version="1.0" encoding="utf-8"?>
<!-- Generator: Adobe Illustrator 16.0.0, SVG Export Plug-In . SVG Version: 6.00 Build 0)  -->
<!DOCTYPE svg PUBLIC "-//W3C//DTD SVG 1.1//EN" "http://www.w3.org/Graphics/SVG/1.1/DTD/svg11.dtd">
<svg version="1.1" id="Layer_1" xmlns="http://www.w3.org/2000/svg" xmlns:xlink="http://www.w3.org/1999/xlink" x="0px" y="0px"
	 width="768px" height="8px" viewBox="-320.5 0 768 8" enable-background="new -320.5 0 768 8" xml:space="preserve">
<g id="ScrollBar">
	<polygon fill="#575757" points="-315.579,8 -320.5,4 -315.579,0 442.579,0 447.5,4 442.579,8 	"/>
</g>
<g id="Anotations" display="none">
	<g display="inline">
		
			<image overflow="visible" opacity="0.33" enable-background="new    " width="979" height="225" xlink:href="1B1B5C5D.png"  transform="matrix(0.239 0 0 0.239 73.0117 -108.0723)">
		</image>
		<g>
			<g>
				
					<line fill="none" stroke="#E6E6E6" stroke-width="3" stroke-miterlimit="10" x1="98.588" y1="-81.188" x2="291.945" y2="-81.188"/>
				<g>
					<circle fill="#E6E6E6" cx="99.152" cy="-81.188" r="11.279"/>
				</g>
			</g>
		</g>
	</g>
	<rect x="324.168" y="-86.03" display="inline" fill="none" width="330" height="15.698"/>
	
		<text transform="matrix(1 0 0 1 324.168 -75.3203)" display="inline" fill="#666666" font-family="'HelveticaNeueLTStd-Roman'" font-size="15">margin: 8px;</text>
	<g display="inline">
		
			<image overflow="visible" opacity="0.33" enable-background="new    " width="1029" height="225" xlink:href="1B1B5C5F.png"  transform="matrix(0.2384 0 0 0.2384 61.7358 72.1914)">
		</image>
		<g>
			<g>
				
					<line fill="none" stroke="#E6E6E6" stroke-width="3" stroke-miterlimit="10" x1="87.334" y1="99.008" x2="291.945" y2="99.008"/>
				<g>
					<circle fill="#E6E6E6" cx="87.898" cy="99.008" r="11.279"/>
				</g>
			</g>
		</g>
	</g>
	<rect x="324.168" y="94.166" display="inline" fill="none" width="330" height="17.417"/>
	
		<text transform="matrix(1 0 0 1 324.168 104.876)" display="inline" fill="#666666" font-family="'HelveticaNeueLTStd-Roman'" font-size="15">width: 12px;   height: 12px;</text>
	<g display="inline">
		
			<image overflow="visible" opacity="0.33" enable-background="new    " width="1029" height="221" xlink:href="1B1B5C5A.png"  transform="matrix(0.2392 0 0 0.2392 60.9063 -77.9414)">
		</image>
		<g>
			<g>
				
					<line fill="none" stroke="#E6E6E6" stroke-width="3" stroke-miterlimit="10" x1="86.588" y1="-51.507" x2="291.945" y2="-51.507"/>
				<g>
					<circle fill="#E6E6E6" cx="87.152" cy="-51.507" r="11.279"/>
				</g>
			</g>
		</g>
	</g>
	<rect x="324.168" y="-56.349" display="inline" fill="none" width="330" height="60.349"/>
	
		<text transform="matrix(1 0 0 1 324.168 -45.6396)" display="inline" fill="#666666" font-family="'HelveticaNeueLTStd-Roman'" font-size="15">width: 4px;</text>
	
		<text transform="matrix(1 0 0 1 324.168 -27.6396)" display="inline" fill="#666666" font-family="'HelveticaNeueLTStd-Roman'" font-size="15">height: auto;</text>
	
		<text transform="matrix(1 0 0 1 324.168 -9.6396)" display="inline" fill="#666666" font-family="'HelveticaNeueLTStd-Roman'" font-size="15">#ebebeb</text>
	<g display="inline">
		
			<image overflow="visible" opacity="0.33" enable-background="new    " width="1075" height="225" xlink:href="1B1B5C5B.png"  transform="matrix(0.2384 0 0 0.2384 50.6533 -12.9834)">
		</image>
		<g>
			<g>
				
					<line fill="none" stroke="#E6E6E6" stroke-width="3" stroke-miterlimit="10" x1="76.256" y1="13.842" x2="291.945" y2="13.842"/>
				<g>
					<circle fill="#E6E6E6" cx="76.82" cy="13.841" r="11.279"/>
				</g>
			</g>
		</g>
	</g>
	<rect x="324.168" y="9" display="inline" fill="none" width="330" height="76.031"/>
	
		<text transform="matrix(1 0 0 1 324.168 21.8516)" display="inline" fill="#999999" font-family="'HelveticaNeueLTStd-Roman'" font-size="18">Poligono usado en gantt.</text>
	
		<text transform="matrix(1 0 0 1 324.168 39.8516)" display="inline" fill="#666666" font-family="'HelveticaNeueLTStd-Roman'" font-size="15">width: 8px;</text>
	
		<text transform="matrix(1 0 0 1 324.168 57.8516)" display="inline" fill="#666666" font-family="'HelveticaNeueLTStd-Roman'" font-size="15">height: auto;</text>
	
		<text transform="matrix(1 0 0 1 324.168 75.8516)" display="inline" fill="#666666" font-family="'HelveticaNeueLTStd-Roman'" font-size="15">575757</text>
	<rect x="68.5" y="-85.03" display="inline" fill="#ED1C24" width="12" height="8"/>
	<rect x="68.5" y="85.031" display="inline" fill="#ED1C24" width="12" height="8"/>
</g>
</svg>
