<?xml version="1.0" encoding="utf-8"?>
<!-- Generator: Adobe Illustrator 16.0.0, SVG Export Plug-In . SVG Version: 6.00 Build 0)  -->
<!DOCTYPE svg PUBLIC "-//W3C//DTD SVG 1.1//EN" "http://www.w3.org/Graphics/SVG/1.1/DTD/svg11.dtd">
<svg version="1.1" xmlns="http://www.w3.org/2000/svg" xmlns:xlink="http://www.w3.org/1999/xlink" x="0px" y="0px" width="12px"
	 height="12px" viewBox="0 0 12 12" enable-background="new 0 0 12 12" xml:space="preserve">
<g id="ScrollBar">
	<polygon fill="#D1D1D1" points="5.985,12 11.985,6 5.985,0 4.931,1.055 9.13,5.254 0.015,5.254 0.015,6.746 9.13,6.746 
		4.931,10.944 	"/>
	<polygon fill="#D1D1D1" points="-88.999,0 -94.999,6 -88.999,12 -87.944,10.945 -92.144,6.746 -83.029,6.746 -83.029,5.254 
		-92.144,5.254 -87.944,1.056 	"/>
</g>
<g id="Anotations" display="none">
	<g display="inline">
		
			<image overflow="visible" opacity="0.33" width="976" height="219" xlink:href="DD336AFF.png"  transform="matrix(0.24 0 0 0.24 4.374 -105.4673)">
		</image>
		<g>
			<g>
				
					<line fill="none" stroke="#E6E6E6" stroke-width="3" stroke-miterlimit="10" x1="30.089" y1="-79.188" x2="223.446" y2="-79.188"/>
				<g>
					<circle fill="#E6E6E6" cx="30.653" cy="-79.188" r="11.279"/>
				</g>
			</g>
		</g>
	</g>
	<rect x="255.669" y="-84.03" display="inline" fill="none" width="330" height="15.698"/>
	
		<text transform="matrix(1 0 0 1 255.6689 -73.3198)" display="inline" fill="#666666" font-family="'HelveticaNeueLTStd-Roman'" font-size="15">margin: 8px;</text>
	<g display="inline">
		
			<image overflow="visible" opacity="0.33" width="1023" height="219" xlink:href="DD336AFD.png"  transform="matrix(0.24 0 0 0.24 -6.8799 74.7285)">
		</image>
		<g>
			<g>
				
					<line fill="none" stroke="#E6E6E6" stroke-width="3" stroke-miterlimit="10" x1="18.835" y1="101.008" x2="223.446" y2="101.008"/>
				<g>
					<circle fill="#E6E6E6" cx="19.399" cy="101.008" r="11.279"/>
				</g>
			</g>
		</g>
	</g>
	<rect x="255.669" y="96.166" display="inline" fill="none" width="330" height="17.417"/>
	
		<text transform="matrix(1 0 0 1 255.6689 106.876)" display="inline" fill="#666666" font-family="'HelveticaNeueLTStd-Roman'" font-size="15">width: 12px;   height: 12px;</text>
	<g display="inline">
		
			<image overflow="visible" opacity="0.33" width="1026" height="219" xlink:href="DD336B03.png"  transform="matrix(0.24 0 0 0.24 -7.626 -75.7866)">
		</image>
		<g>
			<g>
				
					<line fill="none" stroke="#E6E6E6" stroke-width="3" stroke-miterlimit="10" x1="18.089" y1="-49.507" x2="223.446" y2="-49.507"/>
				<g>
					<circle fill="#E6E6E6" cx="18.653" cy="-49.507" r="11.279"/>
				</g>
			</g>
		</g>
	</g>
	<rect x="255.669" y="-54.349" display="inline" fill="none" width="330" height="60.349"/>
	<text transform="matrix(1 0 0 1 255.6689 -43.6392)" display="inline"><tspan x="0" y="0" fill="#666666" font-family="'HelveticaNeueLTStd-Roman'" font-size="15">width: 4px;</tspan><tspan x="0" y="18" fill="#666666" font-family="'HelveticaNeueLTStd-Roman'" font-size="15">height: auto;</tspan><tspan x="0" y="36" fill="#666666" font-family="'HelveticaNeueLTStd-Roman'" font-size="15">#ebebeb</tspan></text>
	<g display="inline">
		
			<image overflow="visible" opacity="0.33" width="1069" height="219" xlink:href="DD336B05.png"  transform="matrix(0.24 0 0 0.24 -17.9585 -10.438)">
		</image>
		<g>
			<g>
				<line fill="none" stroke="#E6E6E6" stroke-width="3" stroke-miterlimit="10" x1="7.757" y1="15.842" x2="223.446" y2="15.842"/>
				<g>
					<circle fill="#E6E6E6" cx="8.321" cy="15.841" r="11.279"/>
				</g>
			</g>
		</g>
	</g>
	<rect x="255.669" y="11" display="inline" fill="none" width="330" height="76.031"/>
	<text transform="matrix(1 0 0 1 255.6689 23.8516)" display="inline"><tspan x="0" y="0" fill="#999999" font-family="'HelveticaNeueLTStd-Roman'" font-size="18">Poligono usado en gantt.</tspan><tspan x="0" y="18" fill="#666666" font-family="'HelveticaNeueLTStd-Roman'" font-size="15">width: 8px;</tspan><tspan x="0" y="36" fill="#666666" font-family="'HelveticaNeueLTStd-Roman'" font-size="15">height: auto;</tspan><tspan x="0" y="54" fill="#666666" font-family="'HelveticaNeueLTStd-Roman'" font-size="15">575757</tspan></text>
	<rect x="0.001" y="-83.03" display="inline" fill="#ED1C24" width="12" height="8"/>
	<rect x="0.001" y="87.031" display="inline" fill="#ED1C24" width="12" height="8"/>
</g>
</svg>
